<svg xmlns="http://www.w3.org/2000/svg" version="1.1" xmlns:xlink="http://www.w3.org/1999/xlink" xmlns:svgjs="http://svgjs.dev/svgjs" width="1000" height="1000" viewBox="0 0 1000 1000"><rect width="1000" height="1000" fill="#a437db"></rect><g transform="matrix(0.7,0,0,0.7,150.4552443111616,185.9544939271255)"><svg viewBox="0 0 275 247" data-background-color="#a437db" preserveAspectRatio="xMidYMid meet" height="898" width="1000" xmlns="http://www.w3.org/2000/svg" xmlns:xlink="http://www.w3.org/1999/xlink"><g id="tight-bounds" transform="matrix(1,0,0,1,-0.17884597248885825,-0.09999999999999432)"><svg viewBox="0 0 275.35768356655916 247.2" height="247.2" width="275.35768356655916"><g><svg viewBox="0 0 395.52 355.07468952238816" height="247.2" width="275.35768356655916"><g transform="matrix(1,0,0,1,0,277.43338650225513)"><svg viewBox="0 0 395.52 77.64130302013302" height="77.64130302013302" width="395.52"><g id="textblocktransform"><svg viewBox="0 0 395.52 77.64130302013302" height="77.64130302013302" width="395.52" id="textblock"><g><svg viewBox="0 0 395.52 41.87600886917959" height="41.87600886917959" width="395.52"><g transform="matrix(1,0,0,1,0,0)"><svg width="395.52" viewBox="1.75 -36.599998474121094 360.7699890136719 38.19999694824219" height="41.87600886917959" data-palette-color="#bb84e8"><path d="M9.25 0L21.35 0 21.35-3.95 17.7-3.95 17.7-31.05 25.45-31.05 25.45-27.3 29.4-27.3 29.4-35 1.75-35 1.75-27.3 5.7-27.3 5.7-31.05 13.55-31.05 13.55-3.95 9.25-3.95 9.25 0ZM32.9 0L45 0 45-3.95 39.3-3.95 39.3-15.6 41.4-15.6Q42.1-15.6 42.47-15.63 42.85-15.65 43.55-15.65L43.55-15.65 50.9 0 58.2 0 58.2-3.95 53.5-3.95 47.9-15.95Q51.5-16.75 53.37-19.25 55.25-21.75 55.25-25.5L55.25-25.5Q55.25-28.05 54.05-29.85 52.85-31.65 51.05-32.8L51.05-32.8Q49.25-33.95 47.17-34.48 45.1-35 43.4-35L43.4-35 32.9-35 32.9-31.05 35.15-31.05 35.15-3.95 32.9-3.95 32.9 0ZM39.3-19.6L39.3-31.05 43.7-31.05Q45.25-31.05 46.62-30.6 48-30.15 49-29.4L49-29.4Q49.95-28.6 50.52-27.6 51.1-26.6 51.1-25.5L51.1-25.5Q51.1-24.55 50.75-23.5 50.4-22.45 49.55-21.6L49.55-21.6Q48.7-20.75 47.27-20.18 45.85-19.6 43.65-19.6L43.65-19.6 39.3-19.6ZM61.7 0L72.8 0 72.8-3.95 69.95-3.95Q71.35-7.25 72.05-8.9 72.75-10.55 74.15-13.85L74.15-13.85 85.15-13.85Q86.2-11.35 87.22-8.9 88.25-6.45 89.3-3.95L89.3-3.95 86.5-3.95 86.5 0 97.59 0 97.59-3.95 93.5-3.95Q90.05-12.2 86.57-20.28 83.1-28.35 79.65-36.6L79.65-36.6Q76.2-28.35 72.72-20.28 69.25-12.2 65.8-3.95L65.8-3.95 61.7-3.95 61.7 0ZM79.1-25.75L79.1-25.75Q79.15-25.9 79.27-26.25 79.4-26.6 79.6-27.4L79.6-27.4 80.1-25.75 83.45-17.8 75.85-17.8Q76.55-19.55 77.37-21.68 78.2-23.8 79.1-25.75ZM133.14-31.05L133.14-31.05 138.09-31.05 138.09-35 125.99-35 125.99-31.05 128.94-31.05Q126.64-25.55 124.37-20.13 122.09-14.7 119.74-9.25L119.74-9.25 119.29-7.6 118.84-9.25Q116.49-14.7 114.22-20.15 111.94-25.6 109.59-31.05L109.59-31.05 113.19-31.05 113.19-35 101.09-35 101.09-31.05 105.44-31.05Q108.89-22.8 112.37-14.73 115.84-6.65 119.29 1.6L119.29 1.6Q122.74-6.65 126.22-14.73 129.69-22.8 133.14-31.05ZM141.59 0L166.64 0 166.64-7.7 162.69-7.7 162.69-3.95 148.54-3.95 148.54-15.65 163.99-15.65 163.99-19.6 148.54-19.6 148.54-31.05 161.99-31.05 161.99-27.3 165.94-27.3 165.94-35 141.59-35 141.59-31.05 144.39-31.05 144.39-3.95 141.59-3.95 141.59 0ZM170.14 0L195.19 0 195.19-7.7 191.24-7.7 191.24-3.95 177.09-3.95 177.09-31.05 181.24-31.05 181.24-35 170.14-35 170.14-31.05 172.94-31.05 172.94-3.95 170.14-3.95 170.14 0ZM221.18 0L233.28 0 233.28-3.95 229.63-3.95 229.63-31.05 237.38-31.05 237.38-27.3 241.33-27.3 241.33-35 213.68-35 213.68-27.3 217.63-27.3 217.63-31.05 225.48-31.05 225.48-3.95 221.18-3.95 221.18 0ZM244.83 0L255.93 0 255.93-3.95 253.08-3.95Q254.48-7.25 255.18-8.9 255.88-10.55 257.28-13.85L257.28-13.85 268.28-13.85Q269.33-11.35 270.36-8.9 271.38-6.45 272.43-3.95L272.43-3.95 269.63-3.95 269.63 0 280.73 0 280.73-3.95 276.63-3.95Q273.18-12.2 269.71-20.28 266.23-28.35 262.78-36.6L262.78-36.6Q259.33-28.35 255.86-20.28 252.38-12.2 248.93-3.95L248.93-3.95 244.83-3.95 244.83 0ZM262.23-25.75L262.23-25.75Q262.28-25.9 262.41-26.25 262.53-26.6 262.73-27.4L262.73-27.4 263.23-25.75 266.58-17.8 258.98-17.8Q259.68-19.55 260.51-21.68 261.33-23.8 262.23-25.75ZM284.23 0L309.28 0 309.28-7.7 305.33-7.7 305.33-3.95 291.18-3.95 291.18-31.05 295.33-31.05 295.33-35 284.23-35 284.23-31.05 287.03-31.05 287.03-3.95 284.23-3.95 284.23 0ZM312.78 0L337.83 0 337.83-7.7 333.88-7.7 333.88-3.95 319.73-3.95 319.73-15.65 335.18-15.65 335.18-19.6 319.73-19.6 319.73-31.05 333.18-31.05 333.18-27.3 337.13-27.3 337.13-35 312.78-35 312.78-31.05 315.58-31.05 315.58-3.95 312.78-3.95 312.78 0ZM359.47-2.2L359.47-2.2Q360.87-3.5 361.7-5.3 362.52-7.1 362.52-9.35L362.52-9.35Q362.52-13 361.22-15.1 359.92-17.2 357.82-18.2L357.82-18.2Q355.52-19.3 353.02-20.03 350.52-20.75 348.72-21.7L348.72-21.7Q347.57-22.35 346.87-23.28 346.17-24.2 346.17-25.7L346.17-25.7Q346.17-26.8 346.5-27.78 346.82-28.75 347.47-29.5L347.47-29.5Q348.17-30.3 349.27-30.78 350.37-31.25 351.87-31.25L351.87-31.25Q353.37-31.25 354.62-30.95 355.87-30.65 356.82-30.25L356.82-30.25 356.82-27.3 360.77-27.3 360.77-32.2Q359.57-33.2 358.35-33.8 357.12-34.4 355.97-34.7L355.97-34.7Q354.82-35 353.77-35.1 352.72-35.2 351.82-35.2L351.82-35.2Q349.07-35.2 347.17-34.35 345.27-33.5 344.12-32.15L344.12-32.15Q342.97-30.8 342.47-29.15 341.97-27.5 342.02-25.85L342.02-25.85Q342.07-22.75 343.3-21.05 344.52-19.35 346.37-18.4L346.37-18.4Q348.17-17.45 350.27-16.9 352.37-16.35 354.17-15.6L354.17-15.6Q355.32-15.05 356.2-14.43 357.07-13.8 357.72-12.75L357.72-12.75Q358.12-12.1 358.25-11.2 358.37-10.3 358.37-9.4L358.37-9.4Q358.37-7.95 357.82-6.85 357.27-5.75 356.37-5L356.37-5Q355.42-4.3 354.22-3.93 353.02-3.55 351.72-3.55L351.72-3.55Q349.47-3.55 347.67-4.28 345.87-5 344.57-6L344.57-6 344.57-10.45 340.62-10.45 340.62-4.65Q341.27-3.65 342.45-2.75 343.62-1.85 345.12-1.15L345.12-1.15Q346.62-0.45 348.42-0.03 350.22 0.4 352.12 0.4L352.12 0.4Q354.22 0.4 356.12-0.28 358.02-0.95 359.47-2.2Z" opacity="1" transform="matrix(1,0,0,1,0,0)" fill="#bb84e8" class="wordmark-text-0" data-fill-palette-color="primary" id="text-0"></path></svg></g></svg></g><g transform="matrix(1,0,0,1,0,51.761929538980034)"><svg viewBox="0 0 395.52 25.87937348115299" height="25.87937348115299" width="395.52"><g transform="matrix(1,0,0,1,0,0)"><svg width="395.52" viewBox="0.17000001668930054 -34.790000915527344 666.4000244140625 43.60000228881836" height="25.87937348115299" data-palette-color="#471aa0"><path d="M20.19-19.02L21.88-19.02 21.88-1.86Q20.75-0.88 18.87-0.22 16.99 0.44 14.31 0.44 11.62 0.44 9.74-0.76L9.74-0.76Q7.62-2.05 7.62-4.42L7.62-4.42 7.62-20.14 1.93-20.14Q0.17-22.66 0.17-25.63L0.17-25.63Q0.17-27.66 0.82-29.16 1.46-30.66 2.42-31.49L2.42-31.49 27.66-31.49Q28.37-30.4 28.83-28.83 29.3-27.27 29.3-25.73L29.3-25.73Q29.3-22.85 28.03-21.5 26.76-20.14 24.61-20.14L24.61-20.14 17.46-20.14Q17.38-19.97 17.38-19.78L17.38-19.78Q17.38-19.34 17.9-19.19L17.9-19.19Q18.43-19.02 20.19-19.02L20.19-19.02ZM65.52 0.76L65.52 0.76Q58.76 0.76 54.85-3L54.85-3Q50.85-6.79 50.85-13.37 50.85-19.95 54.97-23.8L54.97-23.8Q58.78-27.39 64.61-27.39 70.45-27.39 73.98-24.18 77.51-20.97 77.51-16.28L77.51-16.28Q77.51-12.11 74.6-9.99L74.6-9.99Q71.91-7.98 67.28-7.98L67.28-7.98Q63.81-7.98 61.42-9.42L61.42-9.42Q61.22-9.28 61.22-8.89L61.22-8.89Q61.22-8.15 63.15-7.54L63.15-7.54Q65.08-6.88 67.53-6.88 69.99-6.88 72-7.51 74.01-8.13 75.24-8.98L75.24-8.98Q75.82-8.47 76.18-7.09 76.53-5.71 76.53-4.58 76.53-3.44 76.31-2.56L76.31-2.56Q74.41-0.95 72.4-0.27L72.4-0.27Q69.57 0.76 65.52 0.76ZM65.2-15.77L65.2-15.77Q66.42-15.77 66.42-16.7L66.42-16.7Q66.42-17.58 65.13-17.58 63.83-17.58 63.64-16.19L63.64-16.19Q64.32-15.77 65.2-15.77ZM114.9-29.47L114.9-29.47 114.9-12.3Q114.9-8.67 116.66-7.57L116.66-7.57Q116.68-7.45 116.68-7.1L116.68-7.1 116.68-6.67Q116.68-3.17 114.91-1.37 113.14 0.44 109.89 0.44 106.65 0.44 104.74-1.37L104.74-1.37Q102.47-3.52 102.47-7.86L102.47-7.86 102.47-33.23Q105.04-34.79 108.34-34.79 111.65-34.79 113.28-33.39 114.9-31.98 114.9-29.47ZM153.76-29.47L153.76-29.47 153.76-12.3Q153.76-8.67 155.51-7.57L155.51-7.57Q155.54-7.45 155.54-7.1L155.54-7.1 155.54-6.67Q155.54-3.17 153.77-1.37 152 0.44 148.75 0.44 145.51 0.44 143.6-1.37L143.6-1.37Q141.33-3.52 141.33-7.86L141.33-7.86 141.33-33.23Q143.89-34.79 147.2-34.79 150.51-34.79 152.13-33.39 153.76-31.98 153.76-29.47ZM226.91-12.33L226.91-12.33 226.91-11.77Q226.91-11.38 226.93-11.21L226.93-11.21Q227.18-11.08 227.47-11.08L227.47-11.08Q228.18-11.08 228.18-12.16L228.18-12.16Q228.18-15.75 228.58-19.62 228.98-23.49 229.45-25.59L229.45-25.59Q231.42-27.03 234.72-27.03 238.02-27.03 239.81-25.74 241.61-24.46 241.61-22.66L241.61-22.66Q241.61-21.9 240.7-16.41L240.7-16.41Q239.7-10.82 238.14-4.64L238.14-4.64Q237.82-3.39 237-1.15 236.19 1.1 235.26 2.59L235.26 2.59Q232.35 7.2 228.08 8.3L228.08 8.3Q226.08 8.81 224.05 8.81L224.05 8.81Q220.12 8.81 217.97 6.86L217.97 6.86Q215.99 5.1 215.99 2.5 215.99-0.1 217.53-2.39L217.53-2.39Q217.9-2.49 218.88-2.49 219.85-2.49 221.32-2.25L221.32-2.25Q225.37-1.49 225.44-1.49L225.44-1.49Q225.61-1.46 225.82-1.43 226.03-1.39 226.37-1.39 226.71-1.39 226.96-1.59 227.2-1.78 227.2-2.37L227.2-2.37 221.44-3.47Q219.32-4.35 217.75-7.15L217.75-7.15Q215.82-10.62 215.14-16.55L215.14-16.55Q213.53-18.65 213.53-21.58 213.53-24.51 214.99-26.68L214.99-26.68 221.27-26.68Q224.42-26.68 225.98-24.88L225.98-24.88Q227.13-23.54 227.45-20.95L227.45-20.95Q226.91-16.7 226.91-12.33ZM278.49-13.6L278.49-13.6 278.49-9.33Q278.66-9.16 279.05-9.16 279.44-9.16 279.61-9.42 279.78-9.69 279.78-10.35L279.78-10.35 279.78-13.84Q279.78-16.19 279.58-16.96 279.39-17.72 278.85-17.72L278.85-17.72Q278.51-17.72 278.27-17.48L278.27-17.48Q278.49-15.06 278.49-13.6ZM269.35-2.78L269.35-2.78Q265.35-6.64 265.35-13.24 265.35-19.85 269.12-23.67 272.9-27.49 279.02-27.49 285.15-27.49 288.94-23.51L288.94-23.51Q292.69-19.53 292.69-13.15 292.69-6.76 289.07-3 285.44 0.76 279.22 0.76 272.99 0.76 269.35-2.78ZM330.87-10.64L330.87-10.64Q331.16-10.64 331.5-10.89L331.5-10.89Q331.26-11.69 331.26-13.4L331.26-13.4 331.26-25.46Q333.85-27.03 337.49-27.03L337.49-27.03Q339.54-27.03 341.09-26.48 342.64-25.93 343.47-25.02L343.47-25.02 343.47-12.3Q343.47-8.67 345.22-7.57L345.22-7.57Q345.25-7.45 345.25-7.1L345.25-7.1 345.25-6.67Q345.25-3.1 343.37-1.27L343.37-1.27Q341.66 0.44 338.66 0.44L338.66 0.44Q336.78 0.44 335.25-0.42 333.73-1.27 332.97-2.91L332.97-2.91Q332.14-2.91 332.14-2.1L332.14-2.1Q332.14-1.54 332.7-0.98L332.7-0.98Q331.92-0.34 330.82 0.05 329.72 0.44 327.59 0.44 325.45 0.44 323.42-0.44L323.42-0.44Q320.91-1.51 319.57-3.74L319.57-3.74Q317.93-6.37 317.93-10.42L317.93-10.42 317.93-16.55Q316.68-18.73 316.68-21.34L316.68-21.34Q316.68-22.68 317.03-24.12 317.37-25.56 318.13-26.68L318.13-26.68 323.5-26.68Q326.52-26.68 328.24-25.26 329.97-23.83 329.97-20.92L329.97-20.92 329.97-13.01Q329.97-10.64 330.87-10.64ZM376.81 0.32L376.81 0.32Q373.9 0.32 372.17-0.73L372.17-0.73Q370.24-1.83 370.24-3.98L370.24-3.98 370.24-16.55Q368.8-18.58 368.8-21.55 368.8-24.51 370.24-26.68L370.24-26.68 373.98-26.68Q376.86-26.68 378.1-24.83L378.1-24.83Q377.49-24.15 377.03-23.1 376.56-22.05 376.56-21.59 376.56-21.14 376.8-20.92 377.03-20.7 377.47-20.7L377.47-20.7Q378.32-24.1 380.71-25.68L380.71-25.68Q382.69-27.03 385.6-27.03L385.6-27.03Q389.21-27.03 391.26-25.49L391.26-25.49Q391.99-23.54 391.99-20.72 391.99-17.9 390.87-15.6L390.87-15.6Q390.04-15.16 388.58-14.86 387.11-14.55 385.62-14.55 384.13-14.55 382.95-14.76 381.76-14.97 381.23-15.14L381.23-15.14Q381.03-14.94 381.03-14.58 381.03-14.21 381.51-14.03 381.98-13.84 383.11-13.62L383.11-13.62 383.11-1.37Q380.45 0.32 376.81 0.32ZM468.9-19.02L470.59-19.02 470.59-1.86Q469.47-0.88 467.59-0.22 465.71 0.44 463.02 0.44 460.33 0.44 458.45-0.76L458.45-0.76Q456.33-2.05 456.33-4.42L456.33-4.42 456.33-20.14 450.64-20.14Q448.88-22.66 448.88-25.63L448.88-25.63Q448.88-27.66 449.53-29.16 450.18-30.66 451.13-31.49L451.13-31.49 476.37-31.49Q477.08-30.4 477.55-28.83 478.01-27.27 478.01-25.73L478.01-25.73Q478.01-22.85 476.74-21.5 475.47-20.14 473.32-20.14L473.32-20.14 466.17-20.14Q466.1-19.97 466.1-19.78L466.1-19.78Q466.1-19.34 466.61-19.19L466.61-19.19Q467.15-19.02 468.9-19.02L468.9-19.02ZM525.76-16.87L525.76-12.08Q525.76-10.33 526.15-9.25 526.54-8.18 527.51-7.57L527.51-7.57Q527.54-7.45 527.54-7.1L527.54-7.1 527.54-6.67Q527.54-3.2 525.44-1.27L525.44-1.27Q523.58 0.44 520.85 0.44L520.85 0.44Q518.99 0.44 517.45-0.44 515.92-1.32 515.26-2.98L515.26-2.98Q514.43-2.98 514.43-2.17L514.43-2.17Q514.43-1.49 515.28-0.63L515.28-0.63Q513.69 0.44 510.5 0.44L510.5 0.44Q505.98 0.44 503.28-2.01 500.58-4.47 500.58-8.87 500.58-13.28 503.44-15.7L503.44-15.7Q506.05-17.87 510.2-17.87L510.2-17.87Q511.62-17.87 512.94-17.68L512.94-17.68Q513.82-17.5 513.89-17.48L513.89-17.48Q513.96-17.72 513.96-17.9L513.96-17.9Q513.96-18.53 512.89-18.75 511.81-18.97 510.08-18.97L510.08-18.97Q506.39-18.97 503.78-17.48L503.78-17.48Q502.59-19.51 502.59-22.61L502.59-22.61Q502.59-24.37 503.03-25.22L503.03-25.22Q504.78-26.03 507.49-26.65 510.2-27.27 513.21-27.27L513.21-27.27Q519.41-27.27 522.58-24.56 525.76-21.85 525.76-16.87L525.76-16.87ZM513.08-10.89L513.08-10.89Q512.06-10.89 512.06-9.96L512.06-9.96Q512.06-9.08 513.26-9.08L513.26-9.08Q514.09-9.08 514.48-9.48 514.87-9.89 514.87-10.89L514.87-10.89Q514.87-10.89 513.08-10.89ZM564.54-29.47L564.54-29.47 564.54-12.3Q564.54-8.67 566.3-7.57L566.3-7.57Q566.32-7.45 566.32-7.1L566.32-7.1 566.32-6.67Q566.32-3.17 564.55-1.37 562.78 0.44 559.54 0.44 556.29 0.44 554.38-1.37L554.38-1.37Q552.11-3.52 552.11-7.86L552.11-7.86 552.11-33.23Q554.68-34.79 557.98-34.79 561.29-34.79 562.92-33.39 564.54-31.98 564.54-29.47ZM604.86 0.76L604.86 0.76Q598.1 0.76 594.19-3L594.19-3Q590.19-6.79 590.19-13.37 590.19-19.95 594.32-23.8L594.32-23.8Q598.12-27.39 603.96-27.39 609.79-27.39 613.32-24.18 616.85-20.97 616.85-16.28L616.85-16.28Q616.85-12.11 613.95-9.99L613.95-9.99Q611.26-7.98 606.62-7.98L606.62-7.98Q603.15-7.98 600.76-9.42L600.76-9.42Q600.57-9.28 600.57-8.89L600.57-8.89Q600.57-8.15 602.49-7.54L602.49-7.54Q604.42-6.88 606.88-6.88 609.33-6.88 611.34-7.51 613.36-8.13 614.58-8.98L614.58-8.98Q615.17-8.47 615.52-7.09 615.87-5.71 615.87-4.58 615.87-3.44 615.65-2.56L615.65-2.56Q613.75-0.95 611.75-0.27L611.75-0.27Q608.92 0.76 604.86 0.76ZM604.55-15.77L604.55-15.77Q605.77-15.77 605.77-16.7L605.77-16.7Q605.77-17.58 604.47-17.58 603.18-17.58 602.98-16.19L602.98-16.19Q603.67-15.77 604.55-15.77ZM655-19.14L655-19.14Q654.37-18.95 654.37-18.38L654.37-18.38 654.37-18.26Q654.37-18.14 654.39-18.12L654.39-18.12Q654.66-18.14 655.1-18.14L655.1-18.14 655.68-18.14Q658.47-18.14 660.9-17.3 663.33-16.46 664.86-14.6L664.86-14.6Q666.57-12.5 666.57-9.3L666.57-9.3Q666.57-4.32 663.13-1.78 659.69 0.76 653.93 0.76 648.16 0.76 644.91-1.15 641.65-3.05 641.65-6.74L641.65-6.74Q641.65-8.11 642.23-9.24 642.82-10.38 643.55-10.84L643.55-10.84Q644.89-9.72 647.44-8.9 650-8.08 652.85-8.08L652.85-8.08Q654-8.08 654-8.72L654-8.72Q654-9.01 653.93-9.2L653.93-9.2Q653.76-9.18 653.51-9.18L653.51-9.18 653.24-9.18Q648.07-9.18 644.97-11.23L644.97-11.23Q641.45-13.55 641.45-17.77 641.45-22 644.6-24.61L644.6-24.61Q648.09-27.49 654.19-27.49L654.19-27.49Q657.2-27.49 659.8-26.86 662.4-26.22 664.25-25.17L664.25-25.17Q664.72-24.17 664.72-22.22L664.72-22.22Q664.72-19.24 663.08-17.65L663.08-17.65Q661.84-18.33 660.04-18.79 658.25-19.24 656.81-19.24 655.37-19.24 655-19.14Z" opacity="1" transform="matrix(1,0,0,1,0,0)" fill="#471aa0" class="slogan-text-1" data-fill-palette-color="secondary" id="text-1"></path></svg></g></svg></g></svg></g></svg></g><g transform="matrix(1,0,0,1,63.986267083772645,0)"><svg viewBox="0 0 267.5474658324547 267.5474658324547" height="267.5474658324547" width="267.5474658324547"><g><svg></svg></g><g id="icon-0"><svg viewBox="0 0 267.5474658324547 267.5474658324547" height="267.5474658324547" width="267.5474658324547"><g><rect width="243.27001059950973" height="243.27001059950973" x="12.13872761647248" y="12.13872761647248" fill="#471aa0" data-fill-palette-color="accent"></rect><rect width="243.27001059950973" height="243.27001059950973" x="0" y="24.27745523294496" fill="#471aa0" opacity="0.5" data-fill-palette-color="accent"></rect></g><g transform="matrix(1,0,0,1,34.68207890420709,36.00830296694748)"><svg viewBox="0 0 198.1833080240405 195.53085989855973" height="195.53085989855973" width="198.1833080240405"><g><svg xmlns="http://www.w3.org/2000/svg" xmlns:xlink="http://www.w3.org/1999/xlink" version="1.1" x="0" y="0" viewBox="5.000249862670898 5.603027820587158 89.99950408935547 88.79496765136719" enable-background="new 0 0 100 100" xml:space="preserve" height="195.53085989855973" width="198.1833080240405" class="icon-s-0" data-fill-palette-color="background" id="s-0"><g fill="#a437db" data-fill-palette-color="background"><path d="M93.926 7.859c-0.097-0.163-0.214-0.312-0.349-0.445l-0.398-0.4c-0.132-0.129-0.278-0.242-0.434-0.337-4.462-2.678-12.771-0.174-18.521 5.58l-8.416 8.414-38.194-2.546c-0.062-0.003-0.123-0.006-0.185-0.006-3.17 0.044-5.575 1.787-6.126 4.446-0.542 2.612 0.829 6.561 6.472 9.113l18.231 9.116c-2.979 3.5-8.587 10.266-11.385 14.817l-10.62 1.181c-1.269 0.141-2.183 1.284-2.042 2.555l0.653 5.886c0.117 1.047 0.926 1.884 1.972 2.033l7.661 1.094 1.096 7.663c0.149 1.043 0.984 1.854 2.033 1.972l5.886 0.653c0.606 0.065 1.219-0.11 1.699-0.492 0.48-0.384 0.785-0.94 0.855-1.552l1.178-10.621c4.553-2.797 11.317-8.402 14.818-11.382l9.116 18.231c2.218 4.902 5.49 6.58 8.024 6.58 0.381 0 0.747-0.038 1.087-0.108 2.66-0.551 4.403-2.956 4.444-6.126 0-0.062 0-0.123-0.003-0.185l-2.549-38.198 8.414-8.414C94.099 20.629 96.604 12.321 93.926 7.859zM75.92 32.266c-0.472 0.472-0.718 1.125-0.674 1.79l2.61 39.141c-0.023 0.706-0.231 1.468-0.756 1.576-0.785 0.159-2.566-0.744-3.979-3.884-0.012-0.029-0.026-0.057-0.041-0.086l-10.464-20.93c-0.319-0.642-0.92-1.099-1.623-1.236-0.146-0.029-0.296-0.043-0.445-0.043-0.557 0-1.099 0.201-1.523 0.576-0.117 0.101-11.725 10.272-17.326 13.383-0.653 0.363-1.093 1.022-1.175 1.767l-1.052 9.475-1.808-0.202L36.61 66.21c-0.085-0.577-0.372-1.075-0.782-1.427-0.354-0.415-0.853-0.706-1.433-0.788L27.01 62.94l-0.199-1.808 9.475-1.055c0.744-0.082 1.403-0.519 1.767-1.175 3.111-5.602 13.28-17.208 13.383-17.324 0.472-0.539 0.668-1.267 0.53-1.972-0.138-0.703-0.592-1.302-1.233-1.623L29.802 27.52c-0.029-0.015-0.059-0.026-0.088-0.041-3.138-1.409-4.049-3.188-3.885-3.976 0.108-0.524 0.873-0.734 1.579-0.757l39.141 2.609c0.665 0.041 1.315-0.199 1.79-0.672l9.154-9.157c4.614-4.614 10.351-5.996 12.604-5.019 0.973 2.256-0.407 7.989-5.021 12.604L75.92 32.266z" fill="#a437db" data-fill-palette-color="background"></path><path d="M26.061 46.546c0.902-0.902 0.902-2.367 0-3.269-0.902-0.904-2.367-0.904-3.27 0L5.679 60.389c-0.905 0.903-0.905 2.367 0 3.271 0.451 0.451 1.043 0.679 1.635 0.679s1.184-0.228 1.635-0.679L26.061 46.546z" fill="#a437db" data-fill-palette-color="background"></path><path d="M53.312 75.652L38.515 90.45c-0.905 0.903-0.905 2.366 0 3.269 0.451 0.453 1.043 0.679 1.635 0.679s1.184-0.226 1.635-0.679l14.798-14.797c0.905-0.902 0.905-2.367 0-3.27C55.68 74.747 54.215 74.747 53.312 75.652z" fill="#a437db" data-fill-palette-color="background"></path><path d="M24.64 72.876L9.379 88.139c-0.905 0.902-0.905 2.367 0 3.27 0.451 0.451 1.043 0.676 1.635 0.676s1.184-0.225 1.635-0.676l15.261-15.261c0.902-0.904 0.902-2.367 0-3.271C27.007 71.973 25.542 71.973 24.64 72.876z" fill="#a437db" data-fill-palette-color="background"></path></g></svg></g></svg></g></svg></g></svg></g><g></g></svg></g><defs></defs></svg><rect width="275.35768356655916" height="247.2" fill="none" stroke="none" visibility="hidden"></rect></g></svg></g></svg>